 <svg
      xmlns="http://www.w3.org/2000/svg"
      width="800"
      height="800"
      version="1.1"
      viewBox="0 0 511.983 511.983"
      xmlSpace="preserve"
    >
      <path
        fill="#DA4453"
        d="M93.06 474.573h-.008c-11.343 0-21.944-6.094-27.655-15.873l-31.405-53.844a10.63 10.63 0 01-1.453-5.375V272.862H21.187c-4.82 0-9.039-3.227-10.296-7.875a10.667 10.667 0 014.921-12l362.05-211.219a31.98 31.98 0 0116.094-4.359c11.344 0 21.952 6.078 27.655 15.875l85.997 147.409c8.906 15.241 3.734 34.874-11.5 43.764L109.161 470.198a31.972 31.972 0 01-16.101 4.375z"
      ></path>
      <g fill="#080808">
        <path
          d="M339.146 117.366c-1.5 5.703 1.906 11.531 7.593 13.031 5.688 1.5 11.53-1.906 13.029-7.601 1.5-5.695-1.905-11.531-7.592-13.03-5.703-1.492-11.53 1.906-13.03 7.6zM360.643 154.225c-1.5 5.695 1.906 11.531 7.594 13.031 5.703 1.492 11.531-1.906 13.031-7.609 1.5-5.695-1.906-11.531-7.594-13.022a10.659 10.659 0 00-13.031 7.6zM382.143 191.075c-1.5 5.695 1.906 11.531 7.594 13.031 5.703 1.5 11.531-1.906 13.031-7.602 1.5-5.703-1.906-11.531-7.594-13.031-5.703-1.499-11.531 1.907-13.031 7.602zM403.643 227.925c-1.5 5.695 1.906 11.531 7.593 13.031 5.703 1.5 11.531-1.906 13.031-7.602 1.499-5.695-1.906-11.531-7.594-13.031-5.702-1.499-11.53 1.907-13.03 7.602z"
          enableBackground="new"
          opacity="0.1"
        ></path>
      </g>
      <path
        fill="#F6BB42"
        d="M446.001 211.551a10.693 10.693 0 01-9.234-5.289l-54.311-93.09c-2.969-5.085-1.25-11.617 3.844-14.585s11.625-1.25 14.594 3.836l54.311 93.09c2.969 5.086 1.25 11.617-3.844 14.585a10.605 10.605 0 01-5.36 1.453z"
      ></path>
      <g fill="#434A54">
        <path d="M185.166 251.3a10.664 10.664 0 01-9.227-5.289c-2.968-5.086-1.25-11.617 3.844-14.586l128.988-75.255c5.078-2.969 11.609-1.25 14.578 3.843 2.969 5.086 1.25 11.617-3.828 14.586l-128.988 75.247a10.64 10.64 0 01-5.367 1.454zM206.666 288.157a10.655 10.655 0 01-9.227-5.297c-2.961-5.092-1.25-11.615 3.844-14.584l128.988-75.256c5.078-2.969 11.608-1.25 14.577 3.844 2.969 5.086 1.25 11.617-3.827 14.585l-128.989 75.255a10.648 10.648 0 01-5.366 1.453z"></path>
      </g>
      <path
        fill="#080808"
        d="M479.984 218.574H74.795l-58.983 34.413a10.662 10.662 0 005.375 19.875h11.351v126.619c0 1.891.5 3.75 1.453 5.375l28.218 48.375h76.037l357.862-208.775a31.982 31.982 0 0011.047-10.758c-5.656-9.07-15.719-15.124-27.171-15.124z"
        enableBackground="new"
        opacity="0.1"
      ></path>
      <path
        fill="#ED5564"
        d="M479.984 239.909H31.999c-17.648 0-31.999 14.359-31.999 32v170.666c0 17.639 14.351 31.998 31.999 31.998h447.985c17.655 0 31.999-14.359 31.999-31.998V271.909c0-17.641-14.344-32-31.999-32z"
      ></path>
      <g fill="#DA4453">
        <path d="M408.455 285.704c-4.187 4.156-4.187 10.906 0 15.078 4.156 4.172 10.906 4.172 15.078 0 4.171-4.172 4.171-10.922 0-15.078-4.172-4.172-10.922-4.172-15.078 0zM408.455 328.36a10.639 10.639 0 000 15.094c4.156 4.156 10.906 4.156 15.078 0a10.668 10.668 0 000-15.094c-4.172-4.156-10.922-4.156-15.078 0zM408.455 371.03c-4.187 4.172-4.187 10.922 0 15.078 4.156 4.172 10.906 4.172 15.078 0 4.171-4.156 4.171-10.906 0-15.078-4.172-4.172-10.922-4.172-15.078 0z"></path>
      </g>
      <g fill="#E6E9ED">
        <path d="M144.363 423.826c-4.976 0-9.429-3.5-10.445-8.578l-15.085-75.418c-1.156-5.781 2.586-11.406 8.367-12.562 5.773-1.141 11.398 2.594 12.547 8.375l15.085 75.434c1.156 5.766-2.586 11.391-8.367 12.547-.704.138-1.407.202-2.102.202z"></path>
        <path d="M129.301 348.405c-.695 0-1.398-.078-2.102-.203L51.772 333.11c-5.773-1.156-9.516-6.781-8.367-12.547 1.156-5.781 6.781-9.516 12.555-8.359l75.419 15.062c5.781 1.156 9.523 6.781 8.367 12.562-1.008 5.063-5.461 8.577-10.445 8.577z"></path>
      </g>
      <path
        fill="#DA4453"
        d="M408.455 413.701c-4.187 4.156-4.187 10.906 0 15.078 4.156 4.172 10.906 4.172 15.078 0 4.171-4.172 4.171-10.922 0-15.078-4.172-4.173-10.922-4.173-15.078 0z"
      ></path>
      <path
        fill="#F5F7FA"
        d="M167.003 300.016c-4.164-4.156-10.921-4.156-15.085 0l-72.302 72.311h-25.75c-5.891 0-10.664 4.781-10.664 10.656 0 5.906 4.773 10.67 10.664 10.67h19.507v19.516c0 5.875 4.773 10.656 10.664 10.656s10.664-4.781 10.664-10.656v-25.748l72.302-72.311c4.164-4.156 4.164-10.922 0-15.094z"
      ></path>
      <path
        fill="#FFCE54"
        d="M458.641 422.356c-5.875 0-10.656-4.781-10.656-10.672V303.907c0-5.891 4.781-10.672 10.656-10.672 5.906 0 10.688 4.781 10.688 10.672v107.777c0 5.892-4.781 10.672-10.688 10.672z"
      ></path>
      <g fill="#434A54">
        <path d="M213.329 325.235h149.314c5.906 0 10.688-4.781 10.688-10.656 0-5.906-4.781-10.672-10.688-10.672H213.329a10.666 10.666 0 00-10.671 10.672c0 5.875 4.781 10.656 10.671 10.656zM362.643 346.579H213.329c-5.89 0-10.671 4.779-10.671 10.654a10.666 10.666 0 0010.671 10.672h149.314c5.906 0 10.688-4.766 10.688-10.672 0-5.875-4.781-10.654-10.688-10.654zM298.646 389.233h-85.317c-5.89 0-10.671 4.779-10.671 10.67s4.781 10.672 10.671 10.672h85.317c5.906 0 10.688-4.781 10.688-10.672s-4.781-10.67-10.688-10.67z"></path>
      </g>
    </svg>