<svg
      xmlns="http://www.w3.org/2000/svg"
      width="800"
      height="800"
      version="1.1"
      viewBox="0 0 511.983 511.983"
      xmlSpace="preserve"
    >
      <g fill="#EAC6BB">
        <path d="M235.875 511.983c-76.982 0-139.394-62.404-139.394-139.387 0-76.981 62.412-139.401 139.394-139.401 76.99 0 139.393 62.42 139.393 139.401 0 76.983-62.403 139.387-139.393 139.387z"></path>
        <path d="M291.085 356.082h59.545V56.732c0-16.421-13.358-29.765-29.765-29.765s-29.78 13.344-29.78 29.765v299.35zM226.227 329.13h59.53V29.764C285.757 13.359 272.399 0 255.992 0c-16.414 0-29.765 13.358-29.765 29.764V329.13zM161.354 356.082h59.537V56.732c0-16.421-13.358-29.765-29.772-29.765s-29.765 13.344-29.765 29.765v299.35zM96.482 372.596h59.537V110.653c0-16.422-13.352-29.765-29.765-29.765s-29.772 13.343-29.772 29.765v261.943z"></path>
      </g>
      <path
        fill="#ED5564"
        d="M479.984 107.216H31.999C14.359 107.216 0 121.574 0 139.215v170.666c0 17.64 14.358 31.999 31.999 31.999h447.985c17.655 0 31.999-14.359 31.999-31.999V139.215c0-17.641-14.344-31.999-31.999-31.999z"
      ></path>
      <g fill="#DA4453">
        <path d="M408.455 153.011c-4.171 4.156-4.171 10.922 0 15.078 4.156 4.172 10.906 4.172 15.078 0 4.171-4.156 4.171-10.922 0-15.078-4.172-4.172-10.922-4.172-15.078 0zM408.455 195.666a10.667 10.667 0 000 15.093c4.156 4.172 10.906 4.172 15.078 0a10.667 10.667 0 000-15.093c-4.172-4.156-10.922-4.156-15.078 0zM408.455 238.336a10.668 10.668 0 000 15.094c4.156 4.155 10.906 4.155 15.078 0a10.668 10.668 0 000-15.094c-4.172-4.156-10.922-4.156-15.078 0z"></path>
      </g>
      <g fill="#E6E9ED">
        <path d="M144.363 291.131c-4.976 0-9.429-3.5-10.445-8.578l-15.085-75.419c-1.156-5.765 2.594-11.39 8.367-12.546 5.781-1.156 11.398 2.594 12.555 8.359l15.085 75.435c1.148 5.765-2.594 11.39-8.367 12.546a10.9 10.9 0 01-2.11.203z"></path>
        <path d="M129.301 215.712c-.688 0-1.391-.062-2.102-.203L51.78 200.416c-5.781-1.156-9.523-6.766-8.367-12.547s6.773-9.515 12.547-8.374l75.427 15.093c5.773 1.156 9.523 6.781 8.367 12.546-1.016 5.078-5.469 8.578-10.453 8.578z"></path>
      </g>
      <path
        fill="#DA4453"
        d="M408.455 281.007c-4.171 4.155-4.171 10.921 0 15.077 4.156 4.172 10.906 4.172 15.078 0 4.171-4.156 4.171-10.922 0-15.077-4.172-4.172-10.922-4.172-15.078 0z"
      ></path>
      <path
        fill="#F5F7FA"
        d="M167.003 167.339c-4.164-4.172-10.921-4.172-15.085 0l-72.294 72.294H53.866c-5.891 0-10.664 4.781-10.664 10.672s4.773 10.655 10.664 10.655h19.507v19.516c0 5.89 4.773 10.655 10.664 10.655s10.671-4.766 10.671-10.655v-25.765l72.294-72.295c4.165-4.155 4.165-10.921.001-15.077z"
      ></path>
      <path
        fill="#FFCE54"
        d="M458.657 289.662c-5.891 0-10.672-4.781-10.672-10.671V171.214c0-5.891 4.781-10.656 10.672-10.656s10.672 4.766 10.672 10.656v107.777c0 5.89-4.781 10.671-10.672 10.671z"
      ></path>
      <g fill="#434A54">
        <path d="M213.329 192.556h149.33c5.891 0 10.672-4.781 10.672-10.672 0-5.89-4.781-10.671-10.672-10.671h-149.33c-5.89 0-10.663 4.781-10.663 10.671 0 5.891 4.773 10.672 10.663 10.672zM362.659 213.884h-149.33c-5.89 0-10.663 4.781-10.663 10.671 0 5.891 4.773 10.656 10.663 10.656h149.33c5.891 0 10.672-4.766 10.672-10.656s-4.781-10.671-10.672-10.671zM298.662 256.554h-85.333c-5.89 0-10.663 4.766-10.663 10.656s4.773 10.672 10.663 10.672h85.333c5.891 0 10.672-4.781 10.672-10.672s-4.781-10.656-10.672-10.656z"></path>
      </g>
      <path
        fill="#EAC6BB"
        d="M433.048 289.506l.016-.016c4.859-9.452 5.766-20.233 2.531-30.358-3.234-10.124-10.234-18.39-19.687-23.265-5.703-2.938-11.827-4.438-18.202-4.438-14.984 0-28.562 8.281-35.422 21.594l-71.199 137.995 73.137 34.873 68.826-136.354v-.031z"
      ></path>
    </svg>